<?xml version="1.0" encoding="UTF-8"?>
<!DOCTYPE svg PUBLIC "-//W3C//DTD SVG 1.1//EN" "http://www.w3.org/Graphics/SVG/1.1/DTD/svg11.dtd">
<svg xmlns="http://www.w3.org/2000/svg" version="1.1" width="2612px" height="653px" style="shape-rendering:geometricPrecision; text-rendering:geometricPrecision; image-rendering:optimizeQuality; fill-rule:evenodd; clip-rule:evenodd" xmlns:xlink="http://www.w3.org/1999/xlink">
<g><path style="opacity:0.984" fill="#fefdfd" d="M 318.5,0.5 C 324.434,-0.111323 330.1,0.72201 335.5,3C 349.347,17.8791 359.514,35.0457 366,54.5C 370.279,68.948 373.612,83.6147 376,98.5C 390.059,91.7044 404.892,87.5377 420.5,86C 432.143,84.6821 443.809,84.3488 455.5,85C 460.899,86.1986 465.566,88.6986 469.5,92.5C 477.685,86.8238 486.685,84.3238 496.5,85C 501.136,85.8786 505.469,87.5452 509.5,90C 542.195,119.514 566.362,155.014 582,196.5C 609.233,265.795 618.899,337.462 611,411.5C 594.891,495.899 550.724,561.066 478.5,607C 399.437,652.636 316.437,661.303 229.5,633C 162.155,607.988 110.321,564.488 74,502.5C 54.4909,468.307 42.8242,431.64 39,392.5C 33.62,306.057 51.9534,225.057 94,149.5C 107.545,127.282 124.045,107.448 143.5,90C 150.6,85.6412 158.266,83.9746 166.5,85C 172.996,87.1655 179.163,89.9989 185,93.5C 189.658,89.2558 195.158,86.7558 201.5,86C 223.098,84.2157 244.098,86.8824 264.5,94C 273.31,98.0774 281.977,102.077 290.5,106C 297.543,95.2158 302.043,83.3825 304,70.5C 306.596,52.1135 307.596,33.7802 307,15.5C 308.466,8.55116 312.3,3.55116 318.5,0.5 Z"/></g>
<g><path style="opacity:1" fill="#06b403" d="M 201.5,105.5 C 206.167,104.833 210.833,104.167 215.5,103.5C 244.126,103.097 269.459,111.93 291.5,130C 292.167,130.667 292.833,130.667 293.5,130C 309.807,113.549 319.307,93.7162 322,70.5C 323.637,53.2012 324.804,35.8678 325.5,18.5C 338.56,33.6125 347.727,50.9458 353,70.5C 358.375,89.1231 361.041,108.123 361,127.5C 389.067,106.858 420.234,99.1913 454.5,104.5C 445.181,114.319 435.681,123.986 426,133.5C 419.969,140.391 414.803,147.891 410.5,156C 446.521,171.022 471.355,196.856 485,233.5C 488.76,244.539 490.427,255.873 490,267.5C 468.342,244.419 442.842,226.919 413.5,215C 405.323,212.372 396.989,210.538 388.5,209.5C 399.417,236.5 406.584,264.5 410,293.5C 411.655,315.91 407.822,337.244 398.5,357.5C 396.578,355.997 395.412,353.997 395,351.5C 387.467,311.539 371.801,275.206 348,242.5C 341.722,234.054 334.556,226.387 326.5,219.5C 299.276,241.264 280.443,268.93 270,302.5C 268.68,308.447 267.68,314.447 267,320.5C 265.274,321.576 263.441,321.743 261.5,321C 255.941,313.341 252.108,304.841 250,295.5C 244.763,265.33 249.263,236.663 263.5,209.5C 237.077,214.537 213.077,225.371 191.5,242C 182.631,250.538 173.464,258.704 164,266.5C 162.875,243.542 169.208,222.875 183,204.5C 190.431,195.066 198.598,186.232 207.5,178C 217.242,170.585 227.242,163.585 237.5,157C 227.836,138.16 215.836,120.994 201.5,105.5 Z"/></g>
<g><path style="opacity:1" fill="#e50105" d="M 157.5,102.5 C 162.618,101.889 167.285,103.056 171.5,106C 190.466,116.746 204.799,131.913 214.5,151.5C 189.129,168.367 169.629,190.367 156,217.5C 147.592,235.279 144.592,253.946 147,273.5C 148.176,281.018 151.343,287.518 156.5,293C 157.944,293.781 159.277,293.614 160.5,292.5C 181.333,269.253 205.666,250.586 233.5,236.5C 233.833,237.167 234.167,237.833 234.5,238.5C 227.585,267.251 229.752,295.251 241,322.5C 247.149,329.95 253.649,337.117 260.5,344C 263.495,346.748 266.995,348.581 271,349.5C 271.772,349.355 272.439,349.022 273,348.5C 280.51,322.296 290.177,296.963 302,272.5C 308.517,261.646 316.184,251.646 325,242.5C 342.729,262.607 356.395,285.274 366,310.5C 373.541,334.955 381.374,359.289 389.5,383.5C 390.552,383.649 391.552,383.483 392.5,383C 401.798,374.042 409.964,364.209 417,353.5C 419.826,343.861 422.493,334.195 425,324.5C 425.667,311.5 425.667,298.5 425,285.5C 420.883,268.253 417.55,250.919 415,233.5C 425.737,238.449 435.904,244.282 445.5,251C 458.548,261.716 471.881,272.049 485.5,282C 488.833,285.333 492.167,288.667 495.5,292C 499.704,294.659 502.871,293.825 505,289.5C 509.316,273.126 509.316,256.793 505,240.5C 493.846,200.703 470.679,170.203 435.5,149C 446.804,136.696 458.47,124.696 470.5,113C 476.002,109.415 481.669,106.081 487.5,103C 491.261,102.262 494.928,102.595 498.5,104C 525.566,128.6 546.399,157.767 561,191.5C 593.141,263.817 603.807,339.15 593,417.5C 590.623,428.34 587.623,439.007 584,449.5C 583.439,450.022 582.772,450.355 582,450.5C 570.779,447.122 559.446,444.122 548,441.5C 533.997,446.522 531.83,454.688 541.5,466C 551.651,469.551 561.984,472.384 572.5,474.5C 570.307,481.888 566.807,488.554 562,494.5C 552.256,490.863 542.422,487.53 532.5,484.5C 518.043,489.197 515.71,497.364 525.5,509C 532.757,511.808 540.09,514.308 547.5,516.5C 547.392,518.783 546.559,520.783 545,522.5C 540.667,527.833 536.333,533.167 532,538.5C 525.912,535.206 519.745,532.039 513.5,529C 500.867,529.111 496.033,535.278 499,547.5C 499.785,549.286 500.951,550.786 502.5,552C 505.833,554 509.167,556 512.5,558C 474.874,594.149 430.208,617.149 378.5,627C 292.86,641.509 216.526,621.509 149.5,567C 146.5,564 143.5,561 140.5,558C 143.833,556 147.167,554 150.5,552C 158.436,542.211 156.77,534.545 145.5,529C 143.5,528.333 141.5,528.333 139.5,529C 133.647,532.093 127.647,534.926 121.5,537.5C 115.831,531.993 110.664,525.993 106,519.5C 105.251,518.365 105.417,517.365 106.5,516.5C 113.5,514 120.5,511.5 127.5,509C 137.29,497.364 134.957,489.197 120.5,484.5C 110.449,487.628 100.449,490.962 90.5,494.5C 86.0956,488.358 82.7623,481.691 80.5,474.5C 90.868,471.824 101.201,468.991 111.5,466C 121.29,454.364 118.957,446.197 104.5,441.5C 93.0644,444.192 81.7311,447.192 70.5,450.5C 68.0108,446.559 66.1775,442.225 65,437.5C 57.7178,412.523 54.5512,387.023 55.5,361C 56.0687,292.558 72.2354,228.058 104,167.5C 115.8,145.754 130.633,126.254 148.5,109C 151.423,106.554 154.423,104.387 157.5,102.5 Z"/></g>
<g><path style="opacity:1" fill="#90dd90" d="M 215.5,103.5 C 210.833,104.167 206.167,104.833 201.5,105.5C 200.957,105.44 200.624,105.107 200.5,104.5C 205.456,103.506 210.456,103.173 215.5,103.5 Z"/></g>
<g><path style="opacity:0.964" fill="#fefffe" d="M 1009.5,202.5 C 1027.41,202.174 1045.24,202.508 1063,203.5C 1063.5,285.499 1063.67,367.499 1063.5,449.5C 1069.63,449.359 1075.63,450.193 1081.5,452C 1083.85,452.346 1085.68,453.513 1087,455.5C 1090.89,476.227 1082.72,489.394 1062.5,495C 1051.15,495.832 1039.82,495.666 1028.5,494.5C 1024.51,492.841 1020.85,490.674 1017.5,488C 1014.79,484.758 1012.46,481.258 1010.5,477.5C 1009.5,385.836 1009.17,294.169 1009.5,202.5 Z"/></g>
<g><path style="opacity:0.986" fill="#fefffe" d="M 786.5,218.5 C 840.833,218.5 895.167,218.5 949.5,218.5C 949.5,233.5 949.5,248.5 949.5,263.5C 916.167,263.5 882.833,263.5 849.5,263.5C 849.5,288.5 849.5,313.5 849.5,338.5C 880.167,338.5 910.833,338.5 941.5,338.5C 941.5,353.5 941.5,368.5 941.5,383.5C 910.833,383.5 880.167,383.5 849.5,383.5C 849.667,413.169 849.5,442.835 849,472.5C 846.711,483.457 840.211,490.624 829.5,494C 818.172,494.5 806.838,494.667 795.5,494.5C 795.667,420.499 795.5,346.499 795,272.5C 794.771,269.542 793.604,267.042 791.5,265C 782.87,263.914 774.203,263.247 765.5,263C 759.051,241.414 766.051,226.581 786.5,218.5 Z"/></g>
<g><path style="opacity:0.984" fill="#fefffe" d="M 1539.5,219.5 C 1559.24,218.169 1579.07,218.169 1599,219.5C 1619,282.833 1639,346.167 1659,409.5C 1660.37,412.186 1661.7,414.853 1663,417.5C 1665.22,419.619 1667.72,419.952 1670.5,418.5C 1672.53,413.246 1675.03,408.246 1678,403.5C 1697.2,342.069 1716.7,280.736 1736.5,219.5C 1755.5,218.167 1774.5,218.167 1793.5,219.5C 1761.46,311.13 1729.12,402.63 1696.5,494C 1676.16,494.833 1655.83,494.666 1635.5,493.5C 1603.67,401.993 1571.67,310.66 1539.5,219.5 Z"/></g>
<g><path style="opacity:0.979" fill="#fefffe" d="M 1216.5,292.5 C 1246.15,289.495 1273.15,296.328 1297.5,313C 1321.56,334.489 1333.23,361.489 1332.5,394C 1333.1,431.122 1318.77,460.789 1289.5,483C 1263.09,498.347 1234.76,503.347 1204.5,498C 1160.78,489.945 1134.61,464.112 1126,420.5C 1120.72,390.428 1125.39,362.095 1140,335.5C 1158.9,309.44 1184.4,295.106 1216.5,292.5 Z M 1217.5,334.5 C 1231.21,332.82 1244.21,334.987 1256.5,341C 1267.42,348.667 1273.92,359.167 1276,372.5C 1279.55,392.49 1278.21,412.157 1272,431.5C 1263.51,449.588 1249.18,458.588 1229,458.5C 1199.45,457.953 1182.78,442.953 1179,413.5C 1174.96,390.868 1178.96,369.868 1191,350.5C 1198.26,342.383 1207.09,337.049 1217.5,334.5 Z"/></g>
<g><path style="opacity:0.976" fill="#fefffe" d="M 1907.5,292.5 C 1925.31,291.068 1942.64,293.235 1959.5,299C 1979.58,307.42 1992.08,322.253 1997,343.5C 1998.54,349.746 1999.54,356.079 2000,362.5C 2000.5,391.498 2000.67,420.498 2000.5,449.5C 2006.84,449.334 2013.18,449.5 2019.5,450C 2025.76,470.927 2019.09,485.927 1999.5,495C 1983.5,495.667 1967.5,495.667 1951.5,495C 1956.83,494.667 1962.17,494.333 1967.5,494C 1957.86,490.361 1951.7,483.528 1949,473.5C 1948.44,472.978 1947.77,472.645 1947,472.5C 1941.54,476.954 1936.38,481.787 1931.5,487C 1915.17,498.06 1897.17,502.06 1877.5,499C 1845.36,492.522 1828.69,472.855 1827.5,440C 1828.63,406.864 1845.3,386.197 1877.5,378C 1899.06,374.016 1920.72,370.682 1942.5,368C 1944.49,367.426 1945.99,366.259 1947,364.5C 1949.46,346.274 1941.63,335.107 1923.5,331C 1895.54,328.658 1870.37,335.825 1848,352.5C 1847.33,338.167 1847.33,323.833 1848,309.5C 1855.16,305.558 1862.66,302.391 1870.5,300C 1882.83,296.768 1895.16,294.268 1907.5,292.5 Z M 1942.5,400.5 C 1944.83,400.5 1947.17,400.5 1949.5,400.5C 1952.66,419.377 1947.99,435.877 1935.5,450C 1920,462.192 1903.66,463.526 1886.5,454C 1876.91,443.603 1875.41,432.103 1882,419.5C 1886.88,412.967 1893.38,408.801 1901.5,407C 1915.29,404.739 1928.96,402.572 1942.5,400.5 Z"/></g>
<g><path style="opacity:0.971" fill="#fefffe" d="M 1492.5,293.5 C 1498.89,293.312 1505.22,293.812 1511.5,295C 1512.93,295.465 1514.1,296.299 1515,297.5C 1515.67,312.833 1515.67,328.167 1515,343.5C 1514.28,344.059 1513.44,344.392 1512.5,344.5C 1484.76,333.576 1464.6,341.576 1452,368.5C 1450.16,373.703 1448.83,379.036 1448,384.5C 1447.98,415.561 1447.31,446.561 1446,477.5C 1442.74,485.089 1437.24,490.256 1429.5,493C 1417.56,494.415 1405.56,494.915 1393.5,494.5C 1393.5,428.833 1393.5,363.167 1393.5,297.5C 1404.84,297.333 1416.17,297.5 1427.5,298C 1437,300.833 1443.17,307 1446,316.5C 1446.33,316.167 1446.67,315.833 1447,315.5C 1447.33,320.833 1447.67,326.167 1448,331.5C 1455.43,309.889 1470.26,297.222 1492.5,293.5 Z"/></g>
<g><path style="opacity:0.984" fill="#fefffe" d="M 2049.5,298.5 C 2070,297.337 2090.66,297.171 2111.5,298C 2122.54,319.246 2133.71,340.412 2145,361.5C 2148.91,364.2 2152.58,363.867 2156,360.5C 2167.37,339.586 2178.87,318.753 2190.5,298C 2209.83,297.333 2229.17,297.333 2248.5,298C 2226.46,329.908 2204.8,362.074 2183.5,394.5C 2195.17,412.5 2206.83,430.5 2218.5,448.5C 2228.06,449.179 2237.56,449.845 2247,450.5C 2251.67,467.27 2247.33,480.937 2234,491.5C 2231.32,492.836 2228.49,493.67 2225.5,494C 2212.5,494.667 2199.5,494.667 2186.5,494C 2174.95,474.41 2163.79,454.576 2153,434.5C 2148.4,430.468 2144.06,430.801 2140,435.5C 2129.42,454.995 2118.59,474.328 2107.5,493.5C 2087.17,494.833 2066.83,494.833 2046.5,493.5C 2068.3,461.196 2090.3,429.029 2112.5,397C 2091.64,363.992 2070.64,331.159 2049.5,298.5 Z"/></g>
<g><path style="opacity:1" fill="#fffcfb" d="M 312.5,482.5 C 326.023,481.74 339.356,482.907 352.5,486C 371.351,493.984 371.017,501.484 351.5,508.5C 345.01,518.909 335.677,524.409 323.5,525C 314.62,522.274 307.62,517.107 302.5,509.5C 296.395,507.551 291.229,504.218 287,499.5C 286.333,497.833 286.333,496.167 287,494.5C 289.179,491.989 291.679,489.822 294.5,488C 300.519,485.835 306.519,484.001 312.5,482.5 Z"/></g>
<g><path style="opacity:0.004" fill="#fefffe" d="M 1009.5,489.5 C 1010.83,490.167 1010.83,490.167 1009.5,489.5 Z"/></g>
<g><path style="opacity:0.004" fill="#fefffe" d="M 1010.5,494.5 C 1011.83,495.167 1011.83,495.167 1010.5,494.5 Z"/></g>
</svg>
